<mxfile host="app.diagrams.net" agent="Mozilla/5.0 (Windows NT 10.0; Win64; x64) AppleWebKit/537.36 (KHTML, like Gecko) Chrome/134.0.0.0 Safari/537.36 Edg/134.0.0.0" version="26.1.0">
  <diagram name="Page-1" id="jYYBuuBjrve1s0EJh8TZ">
    <mxGraphModel dx="1489" dy="807" grid="1" gridSize="10" guides="1" tooltips="1" connect="1" arrows="1" fold="1" page="1" pageScale="1" pageWidth="850" pageHeight="1100" math="0" shadow="0">
      <root>
        <mxCell id="0" />
        <mxCell id="1" parent="0" />
        <mxCell id="ETeVHUXeb7QkJK8TPRQ7-21" value="" style="group" vertex="1" connectable="0" parent="1">
          <mxGeometry x="20" y="20" width="890" height="766.125" as="geometry" />
        </mxCell>
        <mxCell id="Vw4gSpaXoGfUaStnRFzW-2" value="&lt;font&gt;low-stock&lt;/font&gt;" style="shape=cylinder3;whiteSpace=wrap;html=1;boundedLbl=1;backgroundOutline=1;size=15;rotation=-90;horizontal=1;textDirection=vertical-lr;fontSize=18;fillColor=#fff2cc;strokeColor=#d6b656;" parent="ETeVHUXeb7QkJK8TPRQ7-21" vertex="1">
          <mxGeometry x="294.13" y="-10" width="60" height="180" as="geometry" />
        </mxCell>
        <mxCell id="Vw4gSpaXoGfUaStnRFzW-3" value="order-created" style="shape=cylinder3;whiteSpace=wrap;html=1;boundedLbl=1;backgroundOutline=1;size=15;rotation=-90;horizontal=1;textDirection=vertical-lr;fontSize=18;fillColor=#fff2cc;strokeColor=#d6b656;" parent="ETeVHUXeb7QkJK8TPRQ7-21" vertex="1">
          <mxGeometry x="289.38" y="136.63" width="60" height="178.75" as="geometry" />
        </mxCell>
        <mxCell id="Vw4gSpaXoGfUaStnRFzW-4" value="order-payed" style="shape=cylinder3;whiteSpace=wrap;html=1;boundedLbl=1;backgroundOutline=1;size=15;rotation=-90;horizontal=1;textDirection=vertical-lr;fontSize=18;fillColor=#fff2cc;strokeColor=#d6b656;" parent="ETeVHUXeb7QkJK8TPRQ7-21" vertex="1">
          <mxGeometry x="290.5" y="208.5" width="60" height="181" as="geometry" />
        </mxCell>
        <mxCell id="Vw4gSpaXoGfUaStnRFzW-5" value="new-model-created" style="shape=cylinder3;whiteSpace=wrap;html=1;boundedLbl=1;backgroundOutline=1;size=15;rotation=-90;horizontal=1;textDirection=vertical-lr;fontSize=18;fillColor=#fff2cc;strokeColor=#d6b656;" parent="ETeVHUXeb7QkJK8TPRQ7-21" vertex="1">
          <mxGeometry x="314" y="333" width="60" height="228" as="geometry" />
        </mxCell>
        <mxCell id="Vw4gSpaXoGfUaStnRFzW-6" value="new-question-created" style="shape=cylinder3;whiteSpace=wrap;html=1;boundedLbl=1;backgroundOutline=1;size=15;rotation=-90;horizontal=1;textDirection=vertical-lr;fontSize=18;fillColor=#fff2cc;strokeColor=#d6b656;" parent="ETeVHUXeb7QkJK8TPRQ7-21" vertex="1">
          <mxGeometry x="314" y="400" width="60" height="232" as="geometry" />
        </mxCell>
        <mxCell id="Vw4gSpaXoGfUaStnRFzW-7" value="&lt;font&gt;delivery-ready&lt;/font&gt;" style="shape=cylinder3;whiteSpace=wrap;html=1;boundedLbl=1;backgroundOutline=1;size=15;rotation=-90;horizontal=1;textDirection=vertical-lr;fontSize=18;fillColor=#fff2cc;strokeColor=#d6b656;" parent="ETeVHUXeb7QkJK8TPRQ7-21" vertex="1">
          <mxGeometry x="290.5" y="642" width="60" height="188.25" as="geometry" />
        </mxCell>
        <mxCell id="Vw4gSpaXoGfUaStnRFzW-8" value="&lt;font style=&quot;font-size: 15px;&quot;&gt;Inventory&lt;/font&gt;" style="rounded=0;whiteSpace=wrap;html=1;verticalAlign=middle;fillColor=#dae8fc;strokeColor=#6c8ebf;" parent="ETeVHUXeb7QkJK8TPRQ7-21" vertex="1">
          <mxGeometry x="10" y="59" width="100" height="42.5" as="geometry" />
        </mxCell>
        <mxCell id="Vw4gSpaXoGfUaStnRFzW-9" value="&lt;font style=&quot;font-size: 15px;&quot;&gt;Product&lt;/font&gt;" style="rounded=0;whiteSpace=wrap;html=1;verticalAlign=middle;fillColor=#dae8fc;strokeColor=#6c8ebf;" parent="ETeVHUXeb7QkJK8TPRQ7-21" vertex="1">
          <mxGeometry y="494.75" width="100" height="42.5" as="geometry" />
        </mxCell>
        <mxCell id="Vw4gSpaXoGfUaStnRFzW-10" value="&lt;font style=&quot;font-size: 15px;&quot;&gt;Messaging&lt;/font&gt;" style="rounded=0;whiteSpace=wrap;html=1;verticalAlign=middle;fillColor=#f8cecc;strokeColor=#b85450;" parent="ETeVHUXeb7QkJK8TPRQ7-21" vertex="1">
          <mxGeometry x="700" y="287.5" width="190" height="82.5" as="geometry" />
        </mxCell>
        <mxCell id="Vw4gSpaXoGfUaStnRFzW-11" value="&lt;span style=&quot;font-size: 15px;&quot;&gt;Delivery&lt;/span&gt;" style="rounded=0;whiteSpace=wrap;html=1;verticalAlign=middle;fillColor=#dae8fc;strokeColor=#6c8ebf;" parent="ETeVHUXeb7QkJK8TPRQ7-21" vertex="1">
          <mxGeometry y="714.87" width="100" height="42.5" as="geometry" />
        </mxCell>
        <mxCell id="Vw4gSpaXoGfUaStnRFzW-13" value="&lt;span style=&quot;font-size: 15px;&quot;&gt;Payment&lt;/span&gt;" style="rounded=0;whiteSpace=wrap;html=1;verticalAlign=middle;fillColor=#dae8fc;strokeColor=#6c8ebf;" parent="ETeVHUXeb7QkJK8TPRQ7-21" vertex="1">
          <mxGeometry y="277.75" width="100" height="42.5" as="geometry" />
        </mxCell>
        <mxCell id="Vw4gSpaXoGfUaStnRFzW-16" value="" style="endArrow=classic;html=1;rounded=0;entryX=0.5;entryY=1;entryDx=0;entryDy=0;entryPerimeter=0;exitX=0.75;exitY=0;exitDx=0;exitDy=0;" parent="ETeVHUXeb7QkJK8TPRQ7-21" source="Vw4gSpaXoGfUaStnRFzW-10" target="Vw4gSpaXoGfUaStnRFzW-2" edge="1">
          <mxGeometry width="50" height="50" relative="1" as="geometry">
            <mxPoint x="680" y="290" as="sourcePoint" />
            <mxPoint x="530" y="300" as="targetPoint" />
            <Array as="points">
              <mxPoint x="843" y="80" />
            </Array>
          </mxGeometry>
        </mxCell>
        <mxCell id="Vw4gSpaXoGfUaStnRFzW-17" value="&lt;b&gt;Producers&lt;/b&gt;" style="text;html=1;align=center;verticalAlign=middle;whiteSpace=wrap;rounded=0;fontSize=18;" parent="ETeVHUXeb7QkJK8TPRQ7-21" vertex="1">
          <mxGeometry x="30" width="60" height="30" as="geometry" />
        </mxCell>
        <mxCell id="Vw4gSpaXoGfUaStnRFzW-18" value="Consumers" style="text;html=1;align=center;verticalAlign=middle;whiteSpace=wrap;rounded=0;fontSize=18;fontStyle=1" parent="ETeVHUXeb7QkJK8TPRQ7-21" vertex="1">
          <mxGeometry x="600" width="60" height="30" as="geometry" />
        </mxCell>
        <mxCell id="Vw4gSpaXoGfUaStnRFzW-19" style="edgeStyle=orthogonalEdgeStyle;rounded=0;orthogonalLoop=1;jettySize=auto;html=1;entryX=0.5;entryY=0;entryDx=0;entryDy=0;entryPerimeter=0;" parent="ETeVHUXeb7QkJK8TPRQ7-21" source="Vw4gSpaXoGfUaStnRFzW-8" target="Vw4gSpaXoGfUaStnRFzW-2" edge="1">
          <mxGeometry relative="1" as="geometry" />
        </mxCell>
        <mxCell id="Vw4gSpaXoGfUaStnRFzW-20" value="" style="endArrow=classic;html=1;rounded=0;entryX=0.5;entryY=0;entryDx=0;entryDy=0;entryPerimeter=0;exitX=1;exitY=0.25;exitDx=0;exitDy=0;" parent="ETeVHUXeb7QkJK8TPRQ7-21" source="Vw4gSpaXoGfUaStnRFzW-13" target="Vw4gSpaXoGfUaStnRFzW-3" edge="1">
          <mxGeometry width="50" height="50" relative="1" as="geometry">
            <mxPoint x="480" y="350" as="sourcePoint" />
            <mxPoint x="530" y="300" as="targetPoint" />
          </mxGeometry>
        </mxCell>
        <mxCell id="Vw4gSpaXoGfUaStnRFzW-21" value="" style="endArrow=classic;html=1;rounded=0;exitX=1;exitY=0.5;exitDx=0;exitDy=0;entryX=0.5;entryY=0;entryDx=0;entryDy=0;entryPerimeter=0;" parent="ETeVHUXeb7QkJK8TPRQ7-21" source="Vw4gSpaXoGfUaStnRFzW-13" target="Vw4gSpaXoGfUaStnRFzW-4" edge="1">
          <mxGeometry width="50" height="50" relative="1" as="geometry">
            <mxPoint x="480" y="350" as="sourcePoint" />
            <mxPoint x="530" y="300" as="targetPoint" />
          </mxGeometry>
        </mxCell>
        <mxCell id="Vw4gSpaXoGfUaStnRFzW-22" value="" style="endArrow=classic;html=1;rounded=0;exitX=1;exitY=0.25;exitDx=0;exitDy=0;entryX=0.5;entryY=0;entryDx=0;entryDy=0;entryPerimeter=0;" parent="ETeVHUXeb7QkJK8TPRQ7-21" source="Vw4gSpaXoGfUaStnRFzW-9" edge="1" target="Vw4gSpaXoGfUaStnRFzW-5">
          <mxGeometry width="50" height="50" relative="1" as="geometry">
            <mxPoint x="480" y="350" as="sourcePoint" />
            <mxPoint x="230" y="400" as="targetPoint" />
          </mxGeometry>
        </mxCell>
        <mxCell id="Vw4gSpaXoGfUaStnRFzW-23" value="" style="endArrow=classic;html=1;rounded=0;exitX=1;exitY=0.5;exitDx=0;exitDy=0;entryX=0.5;entryY=0;entryDx=0;entryDy=0;entryPerimeter=0;" parent="ETeVHUXeb7QkJK8TPRQ7-21" source="Vw4gSpaXoGfUaStnRFzW-9" target="Vw4gSpaXoGfUaStnRFzW-6" edge="1">
          <mxGeometry width="50" height="50" relative="1" as="geometry">
            <mxPoint x="480" y="350" as="sourcePoint" />
            <mxPoint x="530" y="300" as="targetPoint" />
          </mxGeometry>
        </mxCell>
        <mxCell id="Vw4gSpaXoGfUaStnRFzW-24" style="edgeStyle=orthogonalEdgeStyle;rounded=0;orthogonalLoop=1;jettySize=auto;html=1;entryX=0.5;entryY=0;entryDx=0;entryDy=0;entryPerimeter=0;" parent="ETeVHUXeb7QkJK8TPRQ7-21" source="Vw4gSpaXoGfUaStnRFzW-11" target="Vw4gSpaXoGfUaStnRFzW-7" edge="1">
          <mxGeometry relative="1" as="geometry" />
        </mxCell>
        <mxCell id="Vw4gSpaXoGfUaStnRFzW-26" value="Topics" style="text;html=1;align=center;verticalAlign=middle;whiteSpace=wrap;rounded=0;fontSize=18;fontStyle=1" parent="ETeVHUXeb7QkJK8TPRQ7-21" vertex="1">
          <mxGeometry x="295" width="60" height="30" as="geometry" />
        </mxCell>
        <mxCell id="Vw4gSpaXoGfUaStnRFzW-27" value="" style="endArrow=classic;html=1;rounded=0;exitX=0.25;exitY=0;exitDx=0;exitDy=0;entryX=0.5;entryY=1;entryDx=0;entryDy=0;entryPerimeter=0;" parent="ETeVHUXeb7QkJK8TPRQ7-21" source="Vw4gSpaXoGfUaStnRFzW-10" target="Vw4gSpaXoGfUaStnRFzW-3" edge="1">
          <mxGeometry width="50" height="50" relative="1" as="geometry">
            <mxPoint x="480" y="350" as="sourcePoint" />
            <mxPoint x="530" y="300" as="targetPoint" />
            <Array as="points">
              <mxPoint x="748" y="225" />
            </Array>
          </mxGeometry>
        </mxCell>
        <mxCell id="Vw4gSpaXoGfUaStnRFzW-29" value="" style="endArrow=classic;html=1;rounded=0;exitX=0.108;exitY=0.993;exitDx=0;exitDy=0;entryX=0.5;entryY=1;entryDx=0;entryDy=0;entryPerimeter=0;exitPerimeter=0;" parent="ETeVHUXeb7QkJK8TPRQ7-21" source="Vw4gSpaXoGfUaStnRFzW-10" target="Vw4gSpaXoGfUaStnRFzW-5" edge="1">
          <mxGeometry width="50" height="50" relative="1" as="geometry">
            <mxPoint x="480" y="350" as="sourcePoint" />
            <mxPoint x="530" y="300" as="targetPoint" />
            <Array as="points">
              <mxPoint x="720" y="447" />
            </Array>
          </mxGeometry>
        </mxCell>
        <mxCell id="Vw4gSpaXoGfUaStnRFzW-30" value="" style="endArrow=classic;html=1;rounded=0;entryX=0.5;entryY=1;entryDx=0;entryDy=0;entryPerimeter=0;exitX=0.25;exitY=1;exitDx=0;exitDy=0;" parent="ETeVHUXeb7QkJK8TPRQ7-21" source="Vw4gSpaXoGfUaStnRFzW-10" target="Vw4gSpaXoGfUaStnRFzW-6" edge="1">
          <mxGeometry width="50" height="50" relative="1" as="geometry">
            <mxPoint x="480" y="350" as="sourcePoint" />
            <mxPoint x="530" y="300" as="targetPoint" />
            <Array as="points">
              <mxPoint x="748" y="516" />
            </Array>
          </mxGeometry>
        </mxCell>
        <mxCell id="Vw4gSpaXoGfUaStnRFzW-31" value="" style="endArrow=classic;html=1;rounded=0;entryX=0.5;entryY=1;entryDx=0;entryDy=0;entryPerimeter=0;exitX=0.75;exitY=1;exitDx=0;exitDy=0;" parent="ETeVHUXeb7QkJK8TPRQ7-21" source="Vw4gSpaXoGfUaStnRFzW-10" target="Vw4gSpaXoGfUaStnRFzW-7" edge="1">
          <mxGeometry width="50" height="50" relative="1" as="geometry">
            <mxPoint x="480" y="350" as="sourcePoint" />
            <mxPoint x="530" y="300" as="targetPoint" />
            <Array as="points">
              <mxPoint x="840" y="617" />
              <mxPoint x="840" y="740" />
            </Array>
          </mxGeometry>
        </mxCell>
        <mxCell id="Vw4gSpaXoGfUaStnRFzW-32" value="&lt;span style=&quot;font-size: 15px;&quot;&gt;Delivery&lt;/span&gt;" style="rounded=0;whiteSpace=wrap;html=1;verticalAlign=middle;fillColor=#f8cecc;strokeColor=#b85450;" parent="ETeVHUXeb7QkJK8TPRQ7-21" vertex="1">
          <mxGeometry x="500" y="256.75" width="100" height="42.5" as="geometry" />
        </mxCell>
        <mxCell id="ETeVHUXeb7QkJK8TPRQ7-1" value="order-canceled" style="shape=cylinder3;whiteSpace=wrap;html=1;boundedLbl=1;backgroundOutline=1;size=15;rotation=-90;horizontal=1;textDirection=vertical-lr;fontSize=18;fillColor=#fff2cc;strokeColor=#d6b656;" vertex="1" parent="ETeVHUXeb7QkJK8TPRQ7-21">
          <mxGeometry x="290" y="280" width="60" height="180" as="geometry" />
        </mxCell>
        <mxCell id="ETeVHUXeb7QkJK8TPRQ7-2" value="" style="endArrow=classic;html=1;rounded=0;exitX=1;exitY=0.75;exitDx=0;exitDy=0;entryX=0.5;entryY=0;entryDx=0;entryDy=0;entryPerimeter=0;" edge="1" parent="ETeVHUXeb7QkJK8TPRQ7-21" source="Vw4gSpaXoGfUaStnRFzW-13" target="ETeVHUXeb7QkJK8TPRQ7-1">
          <mxGeometry width="50" height="50" relative="1" as="geometry">
            <mxPoint x="410" y="400" as="sourcePoint" />
            <mxPoint x="460" y="350" as="targetPoint" />
          </mxGeometry>
        </mxCell>
        <mxCell id="ETeVHUXeb7QkJK8TPRQ7-5" value="&lt;font style=&quot;font-size: 15px;&quot;&gt;Inventory&lt;/font&gt;" style="rounded=0;whiteSpace=wrap;html=1;verticalAlign=middle;fillColor=#f8cecc;strokeColor=#b85450;" vertex="1" parent="ETeVHUXeb7QkJK8TPRQ7-21">
          <mxGeometry x="500" y="370" width="100" height="42.5" as="geometry" />
        </mxCell>
        <mxCell id="ETeVHUXeb7QkJK8TPRQ7-8" style="edgeStyle=orthogonalEdgeStyle;rounded=0;orthogonalLoop=1;jettySize=auto;html=1;entryX=0.855;entryY=1;entryDx=0;entryDy=-4.35;entryPerimeter=0;" edge="1" parent="ETeVHUXeb7QkJK8TPRQ7-21" source="Vw4gSpaXoGfUaStnRFzW-32" target="Vw4gSpaXoGfUaStnRFzW-4">
          <mxGeometry relative="1" as="geometry" />
        </mxCell>
        <mxCell id="ETeVHUXeb7QkJK8TPRQ7-9" style="edgeStyle=orthogonalEdgeStyle;rounded=0;orthogonalLoop=1;jettySize=auto;html=1;entryX=0.145;entryY=1;entryDx=0;entryDy=-4.35;entryPerimeter=0;" edge="1" parent="ETeVHUXeb7QkJK8TPRQ7-21" source="ETeVHUXeb7QkJK8TPRQ7-5" target="ETeVHUXeb7QkJK8TPRQ7-1">
          <mxGeometry relative="1" as="geometry" />
        </mxCell>
        <mxCell id="ETeVHUXeb7QkJK8TPRQ7-10" style="edgeStyle=orthogonalEdgeStyle;rounded=0;orthogonalLoop=1;jettySize=auto;html=1;exitX=0;exitY=0.25;exitDx=0;exitDy=0;entryX=0.145;entryY=1;entryDx=0;entryDy=-4.35;entryPerimeter=0;" edge="1" parent="ETeVHUXeb7QkJK8TPRQ7-21" source="Vw4gSpaXoGfUaStnRFzW-10" target="Vw4gSpaXoGfUaStnRFzW-4">
          <mxGeometry relative="1" as="geometry">
            <Array as="points">
              <mxPoint x="700" y="320" />
            </Array>
          </mxGeometry>
        </mxCell>
        <mxCell id="ETeVHUXeb7QkJK8TPRQ7-11" style="edgeStyle=orthogonalEdgeStyle;rounded=0;orthogonalLoop=1;jettySize=auto;html=1;exitX=0;exitY=0.75;exitDx=0;exitDy=0;entryX=0.855;entryY=1;entryDx=0;entryDy=-4.35;entryPerimeter=0;" edge="1" parent="ETeVHUXeb7QkJK8TPRQ7-21" source="Vw4gSpaXoGfUaStnRFzW-10" target="ETeVHUXeb7QkJK8TPRQ7-1">
          <mxGeometry relative="1" as="geometry" />
        </mxCell>
        <mxCell id="ETeVHUXeb7QkJK8TPRQ7-12" value="order-rejected" style="shape=cylinder3;whiteSpace=wrap;html=1;boundedLbl=1;backgroundOutline=1;size=15;rotation=-90;horizontal=1;textDirection=vertical-lr;fontSize=18;fillColor=#fff2cc;strokeColor=#d6b656;" vertex="1" parent="ETeVHUXeb7QkJK8TPRQ7-21">
          <mxGeometry x="290.5" y="66" width="60" height="178.75" as="geometry" />
        </mxCell>
        <mxCell id="ETeVHUXeb7QkJK8TPRQ7-13" style="edgeStyle=orthogonalEdgeStyle;rounded=0;orthogonalLoop=1;jettySize=auto;html=1;entryX=0.5;entryY=1;entryDx=0;entryDy=0;entryPerimeter=0;" edge="1" parent="ETeVHUXeb7QkJK8TPRQ7-21" source="Vw4gSpaXoGfUaStnRFzW-10" target="ETeVHUXeb7QkJK8TPRQ7-12">
          <mxGeometry relative="1" as="geometry">
            <Array as="points">
              <mxPoint x="790" y="155" />
            </Array>
          </mxGeometry>
        </mxCell>
        <mxCell id="ETeVHUXeb7QkJK8TPRQ7-14" style="edgeStyle=orthogonalEdgeStyle;rounded=0;orthogonalLoop=1;jettySize=auto;html=1;exitX=0.75;exitY=0;exitDx=0;exitDy=0;entryX=0.5;entryY=0;entryDx=0;entryDy=0;entryPerimeter=0;" edge="1" parent="ETeVHUXeb7QkJK8TPRQ7-21" source="Vw4gSpaXoGfUaStnRFzW-13" target="ETeVHUXeb7QkJK8TPRQ7-12">
          <mxGeometry relative="1" as="geometry" />
        </mxCell>
        <mxCell id="ETeVHUXeb7QkJK8TPRQ7-15" value="model-aprobed" style="shape=cylinder3;whiteSpace=wrap;html=1;boundedLbl=1;backgroundOutline=1;size=15;rotation=-90;horizontal=1;textDirection=vertical-lr;fontSize=18;fillColor=#fff2cc;strokeColor=#d6b656;" vertex="1" parent="ETeVHUXeb7QkJK8TPRQ7-21">
          <mxGeometry x="314" y="470" width="60" height="232" as="geometry" />
        </mxCell>
        <mxCell id="ETeVHUXeb7QkJK8TPRQ7-16" value="model-rejected" style="shape=cylinder3;whiteSpace=wrap;html=1;boundedLbl=1;backgroundOutline=1;size=15;rotation=-90;horizontal=1;textDirection=vertical-lr;fontSize=18;fillColor=#fff2cc;strokeColor=#d6b656;" vertex="1" parent="ETeVHUXeb7QkJK8TPRQ7-21">
          <mxGeometry x="314" y="540" width="60" height="232" as="geometry" />
        </mxCell>
        <mxCell id="ETeVHUXeb7QkJK8TPRQ7-17" value="" style="endArrow=classic;html=1;rounded=0;exitX=1;exitY=0.75;exitDx=0;exitDy=0;entryX=0.5;entryY=0;entryDx=0;entryDy=0;entryPerimeter=0;" edge="1" parent="ETeVHUXeb7QkJK8TPRQ7-21" source="Vw4gSpaXoGfUaStnRFzW-9" target="ETeVHUXeb7QkJK8TPRQ7-15">
          <mxGeometry width="50" height="50" relative="1" as="geometry">
            <mxPoint x="370" y="510" as="sourcePoint" />
            <mxPoint x="420" y="460" as="targetPoint" />
          </mxGeometry>
        </mxCell>
        <mxCell id="ETeVHUXeb7QkJK8TPRQ7-18" style="edgeStyle=orthogonalEdgeStyle;rounded=0;orthogonalLoop=1;jettySize=auto;html=1;exitX=0.75;exitY=1;exitDx=0;exitDy=0;entryX=0.5;entryY=0;entryDx=0;entryDy=0;entryPerimeter=0;" edge="1" parent="ETeVHUXeb7QkJK8TPRQ7-21" source="Vw4gSpaXoGfUaStnRFzW-9" target="ETeVHUXeb7QkJK8TPRQ7-16">
          <mxGeometry relative="1" as="geometry" />
        </mxCell>
        <mxCell id="ETeVHUXeb7QkJK8TPRQ7-19" value="" style="endArrow=classic;html=1;rounded=0;entryX=0.5;entryY=1;entryDx=0;entryDy=0;entryPerimeter=0;" edge="1" parent="ETeVHUXeb7QkJK8TPRQ7-21" target="ETeVHUXeb7QkJK8TPRQ7-16">
          <mxGeometry width="50" height="50" relative="1" as="geometry">
            <mxPoint x="811" y="370" as="sourcePoint" />
            <mxPoint x="610" y="500" as="targetPoint" />
            <Array as="points">
              <mxPoint x="810" y="656" />
            </Array>
          </mxGeometry>
        </mxCell>
        <mxCell id="ETeVHUXeb7QkJK8TPRQ7-20" value="" style="endArrow=classic;html=1;rounded=0;exitX=0.421;exitY=1;exitDx=0;exitDy=0;exitPerimeter=0;entryX=0.5;entryY=1;entryDx=0;entryDy=0;entryPerimeter=0;" edge="1" parent="ETeVHUXeb7QkJK8TPRQ7-21" source="Vw4gSpaXoGfUaStnRFzW-10" target="ETeVHUXeb7QkJK8TPRQ7-15">
          <mxGeometry width="50" height="50" relative="1" as="geometry">
            <mxPoint x="470" y="610" as="sourcePoint" />
            <mxPoint x="520" y="560" as="targetPoint" />
            <Array as="points">
              <mxPoint x="780" y="586" />
            </Array>
          </mxGeometry>
        </mxCell>
      </root>
    </mxGraphModel>
  </diagram>
</mxfile>
